<svg width="124" height="29" viewBox="0 0 124 29" fill="none" xmlns="http://www.w3.org/2000/svg">
<path d="M8.59201e-05 22.4004L9.98409 0.000389099H15.1041L25.1201 22.4004H19.6801L11.4881 2.62439H13.5361L5.31209 22.4004H8.59201e-05ZM4.99209 17.6004L6.36809 13.6644H17.8881L19.2961 17.6004H4.99209ZM36.7241 22.6564C35.2734 22.6564 34.0041 22.3364 32.9161 21.6964C31.8281 21.0564 30.9748 20.0857 30.3561 18.7844C29.7588 17.4617 29.4601 15.7977 29.4601 13.7924C29.4601 11.7657 29.7481 10.1017 30.3241 8.80039C30.9001 7.49906 31.7321 6.52839 32.8201 5.88839C33.9081 5.24839 35.2094 4.92839 36.7241 4.92839C38.3454 4.92839 39.7961 5.30172 41.0761 6.04839C42.3774 6.77372 43.4014 7.79772 44.1481 9.12039C44.9161 10.4431 45.3001 12.0004 45.3001 13.7924C45.3001 15.6057 44.9161 17.1737 44.1481 18.4964C43.4014 19.8191 42.3774 20.8431 41.0761 21.5684C39.7961 22.2937 38.3454 22.6564 36.7241 22.6564ZM26.5481 28.6084V5.18439H31.3161V8.70439L31.2201 13.8244L31.5401 18.9124V28.6084H26.5481ZM35.8601 18.5604C36.6921 18.5604 37.4281 18.3684 38.0681 17.9844C38.7294 17.6004 39.2521 17.0564 39.6361 16.3524C40.0414 15.6271 40.2441 14.7737 40.2441 13.7924C40.2441 12.7897 40.0414 11.9364 39.6361 11.2324C39.2521 10.5284 38.7294 9.98439 38.0681 9.60039C37.4281 9.21639 36.6921 9.02439 35.8601 9.02439C35.0281 9.02439 34.2814 9.21639 33.6201 9.60039C32.9588 9.98439 32.4361 10.5284 32.0521 11.2324C31.6681 11.9364 31.4761 12.7897 31.4761 13.7924C31.4761 14.7737 31.6681 15.6271 32.0521 16.3524C32.4361 17.0564 32.9588 17.6004 33.6201 17.9844C34.2814 18.3684 35.0281 18.5604 35.8601 18.5604ZM58.2738 22.6564C56.8232 22.6564 55.5538 22.3364 54.4658 21.6964C53.3778 21.0564 52.5245 20.0857 51.9058 18.7844C51.3085 17.4617 51.0098 15.7977 51.0098 13.7924C51.0098 11.7657 51.2978 10.1017 51.8738 8.80039C52.4498 7.49906 53.2818 6.52839 54.3698 5.88839C55.4578 5.24839 56.7592 4.92839 58.2738 4.92839C59.8952 4.92839 61.3458 5.30172 62.6258 6.04839C63.9272 6.77372 64.9512 7.79772 65.6978 9.12039C66.4658 10.4431 66.8498 12.0004 66.8498 13.7924C66.8498 15.6057 66.4658 17.1737 65.6978 18.4964C64.9512 19.8191 63.9272 20.8431 62.6258 21.5684C61.3458 22.2937 59.8952 22.6564 58.2738 22.6564ZM48.0978 28.6084V5.18439H52.8658V8.70439L52.7698 13.8244L53.0898 18.9124V28.6084H48.0978ZM57.4098 18.5604C58.2418 18.5604 58.9778 18.3684 59.6178 17.9844C60.2792 17.6004 60.8018 17.0564 61.1858 16.3524C61.5912 15.6271 61.7938 14.7737 61.7938 13.7924C61.7938 12.7897 61.5912 11.9364 61.1858 11.2324C60.8018 10.5284 60.2792 9.98439 59.6178 9.60039C58.9778 9.21639 58.2418 9.02439 57.4098 9.02439C56.5778 9.02439 55.8312 9.21639 55.1698 9.60039C54.5085 9.98439 53.9858 10.5284 53.6018 11.2324C53.2178 11.9364 53.0258 12.7897 53.0258 13.7924C53.0258 14.7737 53.2178 15.6271 53.6018 16.3524C53.9858 17.0564 54.5085 17.6004 55.1698 17.9844C55.8312 18.3684 56.5778 18.5604 57.4098 18.5604ZM72.5458 22.4004V4.22439H65.3778V0.000389099H84.8978V4.22439H77.7298V22.4004H72.5458ZM93.4256 22.4004L83.7616 0.000389099H89.3616L97.8096 19.8404H94.5136L103.09 0.000389099H108.242L98.5456 22.4004H93.4256ZM114.057 18.5924V3.80839H118.185V18.5924H114.057ZM108.521 13.1524V9.24839H123.753V13.1524H108.521Z" fill="#E60000"/>
</svg>
