<svg width="1168" height="316" viewBox="0 0 1168 316" fill="none" xmlns="http://www.w3.org/2000/svg">
<path d="M251.261 115.758C258.863 104.9 273.828 102.261 284.686 109.864L297.278 118.681C308.136 126.284 310.775 141.249 303.172 152.106L270.122 199.306C262.52 210.164 247.555 212.803 236.697 205.2L224.105 196.383C213.247 188.78 210.608 173.815 218.211 162.957L251.261 115.758Z" fill="#01E676"/>
<path d="M162.59 115.758C170.193 104.9 185.158 102.261 196.016 109.864L208.608 118.681C219.466 126.284 222.104 141.249 214.502 152.106L181.452 199.306C173.849 210.164 158.884 212.803 148.027 205.2L135.434 196.383C124.577 188.78 121.938 173.815 129.541 162.957L162.59 115.758Z" fill="#FF7235"/>
<path d="M341.984 136.478C341.984 132.658 342.618 129.071 343.878 125.709C345.138 122.347 347.04 119.42 349.575 116.92C352.102 114.42 355.332 112.448 359.261 110.996C363.191 109.544 367.814 108.814 373.131 108.814C375.576 108.814 378.127 108.946 380.788 109.226C383.451 109.497 386.067 109.909 388.641 110.452C391.213 110.996 393.682 111.656 396.037 112.432C398.394 113.209 400.534 114.094 402.451 115.088C403.494 115.631 404.083 116.159 404.217 116.656C404.344 117.153 404.196 118.085 403.763 119.451L400.363 129.669C399.923 130.942 399.49 131.672 399.05 131.851C398.611 132.037 397.872 131.983 396.827 131.719C392.727 130.445 388.648 129.405 384.591 128.582C380.535 127.767 376.718 127.355 373.138 127.355C369.298 127.355 366.591 128.085 365.026 129.537C363.452 130.989 362.669 132.759 362.669 134.856C362.669 136.036 362.929 137.123 363.452 138.124C363.974 139.126 364.824 140.104 366.002 141.052C367.18 142.007 368.753 142.985 370.714 143.979C372.676 144.98 375.1 146.067 377.977 147.248C382.429 149.064 386.53 150.905 390.282 152.768C394.032 154.631 397.239 156.743 399.9 159.104C402.562 161.464 404.658 164.236 406.187 167.419C407.715 170.603 408.475 174.415 408.475 178.864C408.475 183.678 407.647 187.855 405.992 191.403C404.329 194.944 402.018 197.902 399.058 200.262C396.09 202.623 392.488 204.393 388.261 205.573C384.025 206.753 379.379 207.344 374.324 207.344C371.527 207.344 368.604 207.181 365.555 206.862C362.498 206.544 359.47 206.047 356.458 205.364C353.445 204.68 350.5 203.795 347.622 202.708C344.743 201.621 342.081 200.301 339.634 198.756C338.934 198.306 338.524 197.801 338.39 197.258C338.255 196.714 338.412 195.852 338.844 194.664L343.296 183.763C343.729 182.676 344.213 182.04 344.735 181.853C345.258 181.675 345.995 181.807 346.957 182.265C348.702 182.995 350.626 183.74 352.714 184.516C354.809 185.293 356.971 185.968 359.194 186.558C361.416 187.148 363.691 187.645 366.002 188.057C368.313 188.468 370.603 188.67 372.877 188.67C375.584 188.67 377.851 188.399 379.685 187.855C381.52 187.312 383.003 186.605 384.136 185.743C385.27 184.881 386.053 183.88 386.493 182.746C386.926 181.613 387.149 180.409 387.149 179.136C387.149 177.769 386.903 176.542 386.426 175.455C385.949 174.368 385.158 173.297 384.069 172.257C382.98 171.208 381.497 170.214 379.618 169.259C377.738 168.305 375.405 167.28 372.616 166.193C367.993 164.376 363.802 162.512 360.051 160.602C356.301 158.692 353.072 156.58 350.366 154.267C347.659 151.953 345.585 149.359 344.146 146.494C342.707 143.629 341.984 140.291 341.984 136.478Z" fill="#FFFBFB"/>
<path d="M445.903 202.553C445.903 203.827 445.709 204.619 445.314 204.937C444.919 205.255 444.068 205.418 442.764 205.418H429.021C427.977 205.418 427.209 205.217 426.731 204.805C426.247 204.394 426.008 203.648 426.008 202.553V118.186C426.008 115.647 426.53 113.621 427.582 112.122C428.626 110.624 430.721 109.87 433.867 109.87H465.932C470.645 109.87 474.902 110.616 478.698 112.122C482.494 113.621 485.722 115.686 488.383 118.326C491.046 120.958 493.074 124.095 494.469 127.728C495.863 131.362 496.564 135.361 496.564 139.724C496.564 142.085 496.214 145.02 495.52 148.514C494.819 152.015 493.313 155.424 491.001 158.731C488.689 162.047 485.326 164.889 480.927 167.249C476.52 169.609 470.652 170.789 463.322 170.789H445.918V202.546L445.903 202.553ZM476.006 141.083C476.006 139.81 475.834 138.428 475.484 136.929C475.134 135.431 474.455 134.018 473.456 132.705C472.449 131.385 471.099 130.298 469.399 129.437C467.699 128.575 465.537 128.14 462.919 128.14H445.903V154.034H463.053C467.505 154.034 470.779 152.784 472.867 150.284C474.962 147.784 476.006 144.717 476.006 141.083Z" fill="#FFFBFB"/>
<path d="M588.48 156.681C588.48 164.5 587.674 171.449 586.056 177.536C584.438 183.623 581.933 188.802 578.532 193.072C575.125 197.343 570.852 200.596 565.707 202.817C560.562 205.037 554.446 206.155 547.385 206.155C533.859 206.155 523.8 201.885 517.216 193.344C510.624 184.803 507.336 172.722 507.336 157.092C507.336 149.46 508.275 142.581 510.147 136.447C512.026 130.313 514.703 125.134 518.2 120.911C521.69 116.687 525.925 113.433 530.898 111.166C535.873 108.899 541.502 107.758 547.781 107.758C554.589 107.758 560.539 108.891 565.647 111.166C570.747 113.441 574.983 116.687 578.346 120.911C581.701 125.134 584.237 130.267 585.936 136.307C587.637 142.348 588.487 149.142 588.487 156.681H588.48ZM567.667 157.092C567.667 153.001 567.384 149.095 566.817 145.376C566.251 141.649 565.222 138.38 563.738 135.562C562.254 132.743 560.248 130.5 557.72 128.815C555.185 127.138 551.919 126.291 547.908 126.291C544.589 126.291 541.688 127.083 539.206 128.675C536.722 130.267 534.65 132.425 532.986 135.15C531.331 137.876 530.108 141.059 529.326 144.693C528.543 148.326 528.147 152.185 528.147 156.277C528.147 161.099 528.476 165.408 529.132 169.228C529.788 173.048 530.877 176.317 532.405 179.042C533.934 181.767 535.962 183.856 538.49 185.308C541.018 186.76 544.202 187.49 548.042 187.49C551.882 187.49 554.932 186.651 557.467 184.966C559.994 183.289 562.001 181.061 563.491 178.289C564.976 175.517 566.042 172.295 566.698 168.615C567.354 164.934 567.683 161.099 567.683 157.1L567.667 157.092Z" fill="#FFFBFB"/>
<path d="M667.198 127.581H643.509V202.406C643.509 203.586 643.314 204.362 642.92 204.72C642.524 205.085 641.674 205.263 640.369 205.263H626.366C625.321 205.263 624.554 205.061 624.076 204.65C623.599 204.238 623.353 203.493 623.353 202.398V127.581H600.185C598.522 127.581 597.694 126.672 597.694 124.856V112.728C597.694 111.547 597.866 110.771 598.216 110.414C598.559 110.049 599.215 109.87 600.178 109.87H667.191C668.234 109.87 668.936 110.057 669.286 110.414C669.629 110.779 669.808 111.547 669.808 112.728V124.856C669.808 126.672 668.936 127.581 667.191 127.581H667.198Z" fill="#FFFBFB"/>
<path d="M739.104 137.295L733.609 162.373L725.623 198.625C724.921 201.809 723.938 203.851 722.677 204.759C721.41 205.667 719.47 206.126 716.853 206.126H709.263C708.04 206.126 706.951 206.079 705.989 205.986C705.027 205.893 704.2 205.629 703.505 205.17C702.805 204.72 702.193 204.037 701.672 203.128C701.15 202.22 700.71 200.9 700.36 199.176L681.778 112.907C681.516 111.633 681.561 110.865 681.904 110.593C682.254 110.321 682.903 110.181 683.865 110.181H699.838C701.06 110.181 702 110.345 702.648 110.655C703.305 110.973 703.76 111.812 704.021 113.179L710.568 152.699L714.497 177.095H715.414L720.388 152.427L727.456 118.086C728.158 115.174 729.075 113.155 730.209 112.022C731.342 110.888 733.303 110.321 736.1 110.321H743.69C746.307 110.321 748.075 110.888 748.992 112.022C749.909 113.155 750.67 114.995 751.281 117.542L763.324 176.559H764.107L767.775 153.39L774.449 113.458C774.621 112.091 774.948 111.23 775.433 110.865C775.91 110.508 776.723 110.321 777.857 110.321H794.739C795.522 110.321 796.088 110.484 796.438 110.803C796.79 111.121 796.79 111.874 796.438 113.054L777.849 198.912C777.409 200.644 776.955 201.979 776.477 202.934C776 203.889 775.411 204.619 774.71 205.116C774.009 205.613 773.182 205.908 772.22 206.001C771.258 206.087 770.169 206.141 768.946 206.141H761.75C760.438 206.141 759.305 206.071 758.35 205.939C757.388 205.799 756.561 205.465 755.859 204.914C755.159 204.371 754.547 203.594 754.025 202.6C753.504 201.599 753.018 200.287 752.586 198.648L744.995 162.397L739.887 137.318H739.104V137.295Z" fill="#FFFBFB"/>
<path d="M852.748 185.946H822.772L817.664 203.253C817.404 204.161 817.031 204.821 816.553 205.232C816.069 205.644 815.219 205.846 814.003 205.846H798.686C797.725 205.846 797.136 205.574 796.92 205.031C796.703 204.487 796.674 203.85 796.853 203.121L824.077 117.666C824.509 116.121 825.017 114.871 825.583 113.916C826.15 112.961 826.806 112.216 827.544 111.664C828.282 111.121 829.154 110.733 830.162 110.508C831.161 110.282 832.324 110.166 833.629 110.166H841.481C842.964 110.166 844.232 110.236 845.276 110.368C846.32 110.5 847.237 110.841 848.028 111.393C848.811 111.936 849.489 112.713 850.056 113.706C850.623 114.708 851.167 116.02 851.689 117.658L878.913 203.113C879.084 203.656 879.084 204.246 878.913 204.883C878.741 205.52 878.168 205.838 877.214 205.838H861.636C860.674 205.838 859.869 205.722 859.212 205.497C858.556 205.271 858.102 204.658 857.84 203.656L852.741 185.938L852.748 185.946ZM827.485 169.183H848.035L843.061 151.814L838.222 132.255H837.439L832.466 151.814L827.492 169.183H827.485Z" fill="#FFFBFB"/>
<path d="M948.46 161.147C951.428 162.506 953.516 164.439 954.738 166.939C955.961 169.439 956.96 172.281 957.751 175.456L964.425 202.717C964.596 203.261 964.573 203.921 964.357 204.697C964.141 205.473 963.507 205.854 962.464 205.854H948.721C947.759 205.854 946.76 205.737 945.708 205.512C944.664 205.287 943.919 204.487 943.486 203.129L937.73 179.005C936.596 174.556 934.918 171.466 932.689 169.742C930.467 168.018 927.387 167.149 923.465 167.149H910.766V202.997C910.766 204.27 910.594 205.062 910.244 205.38C909.894 205.699 909.066 205.862 907.753 205.862H893.75C892.706 205.862 891.938 205.66 891.461 205.248C890.976 204.837 890.738 204.091 890.738 202.997V118.622C890.738 115.896 891.259 113.831 892.311 112.418C893.355 111.012 895.45 110.306 898.597 110.306H930.661C940.175 110.306 947.528 112.806 952.717 117.798C957.908 122.799 960.51 129.523 960.51 137.97C960.51 142.606 959.466 146.961 957.37 151.053C955.275 155.137 952.27 158.274 948.341 160.456L948.475 161.139L948.46 161.147ZM940.086 139.337C940.086 138.157 939.915 136.93 939.564 135.656C939.213 134.383 938.624 133.226 937.797 132.178C936.962 131.138 935.813 130.268 934.33 129.592C932.846 128.909 930.967 128.568 928.7 128.568H910.9V150.37H928.304C932.144 150.37 935.067 149.345 937.074 147.303C939.08 145.261 940.086 142.598 940.086 139.329V139.337Z" fill="#FFFBFB"/>
<path d="M1041.34 205.101C1040.99 205.598 1040.3 205.846 1039.25 205.846H1000.5C995.61 205.846 991.621 205.116 988.526 203.664C985.432 202.212 982.964 200.302 981.13 197.942C979.295 195.582 978.035 192.903 977.334 189.898C976.633 186.901 976.29 183.857 976.29 180.767V135.517C976.29 132.248 976.723 129.111 977.603 126.114C978.475 123.117 979.847 120.438 981.726 118.07C983.605 115.71 986.066 113.823 989.123 112.418C992.173 111.012 995.932 110.306 1000.38 110.306H1037.95C1038.99 110.306 1039.67 110.531 1039.98 110.989C1040.28 111.447 1040.44 112.309 1040.44 113.575V125.159C1040.44 126.339 1040.26 127.131 1039.92 127.543C1039.57 127.954 1038.91 128.156 1037.96 128.156H1004.71C1001.31 128.156 999.04 128.971 997.907 130.61C996.774 132.248 996.206 134.243 996.206 136.604V147.101H1033.77C1034.82 147.101 1035.5 147.326 1035.8 147.784C1036.11 148.242 1036.26 149.104 1036.26 150.37V160.999C1036.26 162.086 1036.11 162.886 1035.8 163.383C1035.5 163.88 1034.82 164.128 1033.77 164.128H996.206V179.665C996.206 182.848 996.922 185.007 998.37 186.14C999.809 187.274 1001.93 187.841 1004.71 187.841H1039.27C1040.4 187.841 1041.12 188.042 1041.43 188.454C1041.74 188.866 1041.89 189.751 1041.89 191.109V202.694C1041.89 203.781 1041.72 204.581 1041.37 205.077L1041.34 205.101Z" fill="#FFFBFB"/>
</svg>
